<?xml version="1.0" standalone="no"?>
<!DOCTYPE svg PUBLIC "-//W3C//DTD SVG 20010904//EN"
 "http://www.w3.org/TR/2001/REC-SVG-20010904/DTD/svg10.dtd">
<svg version="1.0" xmlns="http://www.w3.org/2000/svg"
 width="16.000000pt" height="16.000000pt" viewBox="0 0 16.000000 16.000000"
 preserveAspectRatio="xMidYMid meet">
<metadata>
Created by potrace 1.11, written by Peter Selinger 2001-2013
</metadata>
<g transform="translate(0.000000,16.000000) scale(0.015842,-0.015842)"
fill="#000000" stroke="none">
<path d="M472 841 c-5 -3 -9 -35 -8 -71 l1 -65 50 -1 c28 0 55 1 60 3 6 2 10
33 9 71 l-1 67 -50 1 c-28 1 -55 -1 -61 -5z"/>
<path d="M349 826 c-58 -17 -141 -61 -171 -93 -18 -19 -22 -36 -24 -93 -1 -39
-1 -70 1 -70 1 0 13 10 26 21 40 35 91 65 152 87 31 12 59 22 62 22 3 0 12 0
20 0 12 0 15 14 15 70 0 79 1 78 -81 56z"/>
<path d="M620 770 c0 -38 3 -70 8 -71 74 -7 223 -77 245 -115 5 -8 12 -12 16
-10 9 6 6 130 -3 144 -14 23 -124 86 -178 104 -90 27 -88 28 -88 -52z"/>
<path d="M479 653 c-15 -4 -17 -30 -16 -249 l0 -245 59 3 60 3 0 238 c0 131
-3 241 -6 244 -7 8 -73 11 -97 6z"/>
<path d="M358 634 c-57 -14 -120 -46 -170 -85 l-36 -29 1 -111 c0 -110 0 -111
31 -142 36 -36 155 -93 209 -100 l37 -5 0 68 c0 66 -1 68 -27 75 -16 3 -43 16
-60 27 -31 18 -33 23 -33 74 0 50 2 56 32 74 18 11 45 22 60 25 27 6 28 8 28
74 0 75 1 74 -72 55z"/>
<path d="M615 581 l0 -69 46 24 c26 13 67 28 93 35 25 6 43 15 41 20 -7 11
-103 46 -145 53 l-35 5 0 -68z"/>
<path d="M789 541 c-84 -27 -169 -71 -170 -90 -3 -42 0 -283 3 -286 2 -2 23 1
46 7 l43 11 -1 46 c-5 128 -3 136 35 154 58 28 60 25 60 -64 0 -44 3 -83 7
-85 4 -3 24 10 44 29 l37 34 2 107 c1 102 -1 108 -25 130 l-25 24 -56 -17z"/>
</g>
</svg>
